<?xml version="1.0" standalone="no"?>
<!DOCTYPE svg PUBLIC "-//W3C//DTD SVG 20010904//EN"
 "http://www.w3.org/TR/2001/REC-SVG-20010904/DTD/svg10.dtd">
<svg version="1.0" xmlns="http://www.w3.org/2000/svg"
 width="3840.000000pt" height="2160.000000pt" viewBox="0 0 3840.000000 2160.000000"
 preserveAspectRatio="xMidYMid meet">

<g transform="translate(0.000000,2160.000000) scale(0.100000,-0.100000)"
fill="#000000" stroke="none">
<path d="M22810 21269 c-1340 -97 -2512 -544 -3430 -1308 -217 -180 -509 -479
-690 -706 -35 -44 -66 -83 -69 -87 -3 -4 -47 2 -98 12 -444 92 -1025 112
-1554 54 -1041 -113 -2047 -502 -2844 -1100 -644 -483 -1140 -1077 -1485
-1779 -167 -340 -279 -648 -369 -1015 -69 -279 -141 -720 -141 -861 l0 -36
-237 -6 c-626 -16 -1152 -143 -1678 -404 -417 -208 -771 -471 -1273 -946 -117
-111 -281 -267 -365 -346 -168 -159 -347 -307 -418 -345 -25 -14 -88 -37 -140
-51 -387 -104 -930 -58 -1469 123 -80 27 -302 111 -495 187 -723 284 -1032
389 -1328 452 -155 34 -399 38 -510 10 -626 -158 -767 -935 -441 -2417 157
-713 422 -1613 616 -2095 328 -811 780 -1580 1293 -2195 154 -185 531 -565
705 -712 818 -688 1731 -1080 2780 -1195 130 -14 247 -18 553 -18 l387 0 25
-85 c310 -1050 986 -1952 1920 -2562 625 -409 1351 -677 2140 -793 500 -73
1061 -80 1580 -19 940 110 1877 444 2604 930 l95 63 175 -172 c395 -387 787
-668 1276 -917 636 -323 1328 -516 2105 -586 348 -32 861 -23 1245 22 1646
192 3105 1010 3938 2207 150 215 311 498 404 713 l31 70 116 -23 c316 -62 537
-83 941 -88 396 -5 610 9 965 61 1636 240 3006 1131 3943 2564 912 1396 1332
3209 1161 5020 -135 1443 -655 2794 -1472 3825 -167 210 -270 325 -486 540
-302 301 -578 527 -917 751 -646 426 -1374 725 -2169 889 -96 19 -174 37 -175
38 -1 1 -23 70 -49 152 -107 336 -304 780 -481 1086 -785 1357 -2122 2363
-3767 2833 -432 124 -860 204 -1348 252 -194 19 -902 28 -1100 13z m850 -370
c958 -61 1825 -290 2640 -698 1478 -740 2513 -1967 2921 -3466 18 -66 36 -124
39 -128 4 -5 85 -22 179 -38 1060 -181 1976 -598 2781 -1268 154 -128 531
-505 667 -667 749 -893 1236 -1987 1448 -3254 73 -440 99 -772 99 -1280 0
-474 -18 -745 -80 -1170 -176 -1209 -642 -2351 -1318 -3230 -226 -293 -562
-647 -811 -856 -872 -727 -1837 -1117 -3010 -1215 -181 -15 -666 -15 -865 0
-262 20 -544 69 -798 137 -73 20 -134 35 -136 33 -1 -2 -17 -46 -34 -96 -43
-124 -110 -279 -187 -433 -595 -1187 -1813 -2074 -3325 -2424 -475 -109 -901
-152 -1433 -143 -342 6 -492 17 -777 62 -1228 190 -2304 780 -3052 1672 l-77
92 -73 -57 c-722 -566 -1718 -958 -2733 -1076 -265 -31 -453 -39 -779 -33
-321 6 -485 18 -741 58 -1771 272 -3150 1382 -3669 2952 -37 111 -99 347 -132
496 -5 23 -8 23 -62 17 -31 -4 -93 -12 -137 -17 -114 -14 -697 -19 -840 -8
-1157 90 -2156 545 -3001 1366 -619 603 -1157 1419 -1572 2388 -226 529 -526
1546 -677 2300 -89 447 -123 702 -132 1011 -11 381 40 618 160 738 106 105
258 128 515 75 219 -45 481 -134 1177 -401 582 -224 691 -262 920 -318 297
-72 517 -100 801 -100 379 0 683 69 860 197 168 120 250 192 639 563 313 300
441 415 613 553 592 479 1189 733 1902 812 242 26 618 27 856 1 l51 -6 7 153
c73 1592 756 2866 2007 3745 433 305 1010 576 1564 737 511 147 995 216 1525
217 370 0 634 -28 1000 -104 l195 -40 22 28 c12 16 62 83 111 149 449 602
1098 1119 1822 1450 649 296 1392 478 2140 524 175 10 630 11 790 0z"/>
<path d="M22955 19934 c-22 -2 -98 -9 -170 -14 -606 -50 -1259 -226 -1758
-476 -613 -308 -1115 -742 -1460 -1262 -231 -349 -347 -619 -431 -998 -145
-658 -107 -1298 112 -1894 59 -161 201 -444 293 -585 93 -143 169 -233 320
-380 665 -646 1657 -963 2405 -769 681 176 1300 830 1445 1524 29 139 31 374
6 503 -35 175 -94 313 -208 484 -83 127 -110 194 -116 298 -19 290 203 525
497 527 195 1 323 -81 471 -302 339 -505 455 -1147 319 -1761 -171 -769 -708
-1491 -1439 -1933 -329 -199 -649 -312 -1056 -373 -169 -25 -606 -24 -790 1
-501 68 -981 230 -1418 477 -497 281 -968 701 -1235 1101 -605 905 -822 2009
-616 3128 31 170 84 384 127 522 l34 107 -51 10 c-428 85 -1034 72 -1551 -35
-702 -145 -1338 -439 -1870 -862 -156 -125 -434 -403 -562 -564 -412 -516
-666 -1123 -762 -1823 -68 -490 -54 -999 43 -1610 13 -82 22 -152 20 -154 -2
-2 -95 22 -206 54 -565 161 -923 219 -1353 219 -352 0 -572 -33 -865 -130
-150 -49 -406 -172 -545 -259 -177 -113 -432 -316 -625 -499 -36 -34 -164
-156 -285 -272 -274 -263 -385 -364 -534 -482 -247 -198 -381 -275 -609 -351
-517 -172 -1126 -184 -1862 -35 -453 92 -924 240 -1503 473 -126 51 -230 91
-232 89 -4 -6 64 -373 106 -570 167 -779 391 -1488 679 -2148 87 -199 298
-614 404 -795 795 -1354 1843 -2115 3126 -2270 252 -31 812 -30 963 2 32 6 31
4 47 178 59 664 314 1350 694 1863 552 745 1341 1200 2239 1292 163 16 463 14
592 -5 261 -39 531 -102 791 -186 490 -158 881 -386 1185 -689 295 -295 511
-666 608 -1045 62 -240 86 -563 62 -821 -16 -166 -24 -204 -68 -291 -87 -177
-273 -293 -473 -293 -272 0 -493 193 -535 469 -4 24 -1 110 6 191 50 587 -218
1038 -789 1325 -217 109 -485 196 -772 252 -639 123 -1340 -119 -1810 -625
-383 -414 -606 -944 -675 -1604 -33 -324 -10 -607 80 -968 331 -1325 1473
-2291 2973 -2515 403 -60 883 -63 1307 -9 842 107 1641 432 2240 910 137 110
387 358 487 484 41 52 122 163 178 245 56 83 104 152 106 154 1 1 52 -98 111
-220 60 -123 138 -273 172 -334 600 -1040 1643 -1719 2912 -1894 238 -33 401
-43 659 -43 645 0 1242 112 1821 342 1025 407 1790 1136 2104 2004 28 76 28
80 11 90 -79 46 -330 218 -411 281 -324 252 -598 547 -825 885 -516 770 -697
1622 -525 2471 206 1014 763 1887 1502 2351 288 182 608 302 943 354 162 25
520 26 680 1 242 -38 444 -93 665 -182 172 -69 232 -104 299 -175 284 -307
135 -796 -273 -890 -32 -8 -89 -11 -145 -8 -83 5 -106 11 -256 71 -364 144
-644 172 -949 96 -454 -114 -871 -497 -1151 -1058 -236 -473 -345 -979 -300
-1386 73 -647 461 -1289 1047 -1730 290 -217 673 -394 1073 -495 286 -72 497
-98 848 -104 436 -8 779 30 1212 135 941 226 1780 793 2396 1619 591 792 982
1814 1113 2910 39 320 46 450 46 845 0 460 -22 754 -86 1130 -346 2062 -1546
3593 -3274 4182 -492 168 -1091 275 -1580 283 -44 1 -83 4 -86 8 -4 4 -14 66
-24 137 -90 690 -312 1305 -673 1859 -417 642 -1006 1176 -1728 1565 -663 357
-1363 568 -2184 657 -135 14 -769 27 -875 18z"/>
</g>
</svg>
